<svg width="31" height="31" viewBox="0 0 31 31" fill="none" xmlns="http://www.w3.org/2000/svg">
<path fill-rule="evenodd" clip-rule="evenodd" d="M25.7795 4.89407C22.9428 2.0932 19.1703 0.550051 15.1511 0.54834C6.86952 0.54834 0.129238 7.19525 0.125913 15.3652C0.124901 17.9767 0.816623 20.5258 2.13155 22.7731L0 30.4515L7.965 28.391C10.1596 29.5714 12.6304 30.1937 15.145 30.1946H15.1513C23.432 30.1946 30.1728 23.5468 30.1763 15.3767C30.1777 11.4177 28.6162 7.6948 25.7795 4.89407ZM15.1513 27.6921H15.1462C12.9054 27.6913 10.7075 27.0975 8.79015 25.9753L8.33406 25.7086L3.60751 26.9312L4.86909 22.3865L4.57216 21.9203C3.32215 19.9596 2.66179 17.6932 2.66281 15.3659C2.66555 8.57544 8.26771 3.05096 15.1563 3.05096C18.4918 3.0521 21.6274 4.33478 23.9852 6.6629C26.343 8.99088 27.6406 12.0852 27.6393 15.376C27.6365 22.1671 22.0344 27.6921 15.1513 27.6921ZM22.0013 18.4679C21.6258 18.2827 19.7802 17.3869 19.436 17.2633C19.092 17.14 18.8416 17.0781 18.5914 17.4488C18.3411 17.8195 17.6215 18.6534 17.4025 18.9006C17.1835 19.1475 16.9645 19.1786 16.5892 18.9931C16.2136 18.8079 15.0041 18.4168 13.57 17.1554C12.454 16.1737 11.7006 14.9613 11.4816 14.5905C11.2626 14.2198 11.4582 14.0195 11.6462 13.8349C11.8151 13.6689 12.0217 13.4023 12.2094 13.1862C12.3972 12.9701 12.4597 12.8155 12.5849 12.5685C12.7101 12.3214 12.6475 12.1051 12.5535 11.9199C12.4597 11.7344 11.7088 9.91201 11.396 9.17066C11.0913 8.44884 10.7818 8.5465 10.5513 8.53509C10.3326 8.5244 10.0821 8.52198 9.83171 8.52198C9.58148 8.52198 9.17483 8.61465 8.83063 8.98532C8.48658 9.356 7.51672 10.2517 7.51672 12.0742C7.51672 13.8966 8.86185 15.657 9.04964 15.9042C9.23728 16.1513 11.697 19.891 15.4629 21.4949C16.3585 21.8764 17.0579 22.1041 17.6031 22.2749C18.5026 22.5567 19.321 22.5168 19.9677 22.4216C20.6891 22.3152 22.1889 21.5258 22.5017 20.661C22.8146 19.796 22.8146 19.0547 22.7207 18.9003C22.6269 18.746 22.3767 18.6534 22.0013 18.4679Z" fill="#35B752"/>
</svg>
