<svg width="55" height="55" viewBox="0 0 55 55" fill="none" xmlns="http://www.w3.org/2000/svg">
<g clip-path="url(#clip0_44_1678)">
<path d="M1.5 36.9011L8.18723 24.2003L17.529 40.2807M53.5 36.9011L41.0772 17.0334M35.1743 16.5543C36.0979 17.2565 37.2503 17.6733 38.5 17.6733C39.4312 17.6733 40.3084 17.4419 41.0772 17.0334M35.1743 16.5543C33.853 15.5498 33 13.9612 33 12.1733C33 9.13577 35.4624 6.67334 38.5 6.67334C41.5376 6.67334 44 9.13577 44 12.1733C44 14.2797 42.816 16.1095 41.0772 17.0334M35.1743 16.5543L21.4638 40.2757M17.529 40.2807C16.6059 40.9108 16 41.9713 16 43.1733C16 45.1063 17.567 46.6733 19.5 46.6733C21.433 46.6733 23 45.1063 23 43.1733C23 41.9682 22.3909 40.9053 21.4638 40.2757M17.529 40.2807C18.0904 39.8974 18.769 39.6733 19.5 39.6733C20.2278 39.6733 20.9038 39.8955 21.4638 40.2757M7.5 1.67334L7.5 13.6733M18.5 1.67334L18.5 23.6733M37.5 30.6733V52.6733M48.5 41.6733V52.6733" stroke="#F6512C" stroke-width="3" stroke-linecap="round" stroke-linejoin="round"/>
</g>
<defs>
<clipPath id="clip0_44_1678">
<rect width="55" height="55" fill="white"/>
</clipPath>
</defs>
</svg>
