<svg width="55" height="59" viewBox="0 0 55 59" fill="none" xmlns="http://www.w3.org/2000/svg">
<path d="M29.8376 2.30752L49.531 7.58719C50.9848 7.97681 52.0002 9.21141 52 10.5894V25.415C52 32.2762 49.7532 38.8829 45.5027 44.521C41.3528 50.0259 35.5775 54.2604 28.8018 56.7671C28.3821 56.9222 27.9411 57 27.5001 57C27.0591 57 26.6181 56.9223 26.1984 56.7671C19.4226 54.2604 13.6473 50.0256 9.49744 44.521C5.24676 38.883 3 32.2762 3 25.415V10.5893C3 9.2113 4.01543 7.97681 5.46939 7.58708L25.1625 2.30752C26.6918 1.89749 28.3088 1.89749 29.8376 2.30752Z" stroke="#F6512C" stroke-width="3" stroke-linecap="round" stroke-linejoin="round"/>
<path d="M27.5407 10.0726L41.1284 13.7874C41.9358 14.0082 42.4999 14.7075 42.5 15.4882V25.3911C42.5 30.6239 40.7925 35.6431 37.5625 39.9059C35.0581 43.2113 31.7118 45.9404 27.8856 47.7981C27.6082 47.9328 27.3041 48 27 48C26.6958 48 26.3917 47.9328 26.1144 47.7981C22.2881 45.9403 18.9418 43.2114 16.4375 39.9059C13.2075 35.643 11.5 30.6239 11.5 25.3911V15.4882C11.5 14.7077 12.0642 14.0083 12.8717 13.7874L26.459 10.0726C26.813 9.97571 27.187 9.97591 27.5407 10.0726Z" stroke="#F6512C" stroke-width="3" stroke-linecap="round" stroke-linejoin="round"/>
</svg>
