<svg width="59" height="59" viewBox="0 0 59 59" fill="none" xmlns="http://www.w3.org/2000/svg">
<path d="M13.8014 52.0789C12.4681 51.1518 11.2135 50.1043 10.0546 48.9454C6.20863 45.0995 3.58951 40.1995 2.52842 34.865C1.46732 29.5305 2.01192 24.0012 4.09332 18.9762C6.17473 13.9512 9.69948 9.65632 14.2218 6.63458C18.7442 3.61285 24.061 2 29.5 2C36.7909 2.00832 43.7808 4.9083 48.9362 10.0637C54.0917 15.2192 56.9917 22.2091 57 29.5C57 34.939 55.3872 40.2558 52.3654 44.7782C50.4445 47.6531 48.009 50.1248 45.1986 52.0789M13.8014 52.0789C16.893 54.2283 20.408 55.7302 24.135 56.4716C29.4695 57.5327 34.9988 56.9881 40.0238 54.9067C41.8544 54.1484 43.588 53.1986 45.1986 52.0789M13.8014 52.0789V47.0332C13.8406 44.4567 14.8903 41.9987 16.7245 40.1888C18.5586 38.3789 21.0304 37.362 23.6072 37.3571H35.3929C37.9696 37.362 40.4414 38.3789 42.2755 40.1888C44.1097 41.9987 45.1594 44.4567 45.1986 47.0332V52.0789M30 14C28.0222 14 26.0888 14.5572 24.4443 15.601C22.7998 16.6449 21.5181 18.1286 20.7612 19.8645C20.0043 21.6004 19.8063 23.5105 20.1922 25.3534C20.578 27.1962 21.5304 28.8889 22.9289 30.2175C24.3275 31.5461 26.1093 32.4509 28.0491 32.8175C29.9889 33.184 31.9996 32.9959 33.8268 32.2769C35.6541 31.5578 37.2159 30.3402 38.3147 28.7779C39.4135 27.2156 40 25.3789 40 23.5C40 20.9804 38.9464 18.5641 37.0711 16.7825C35.1957 15.0009 32.6522 14 30 14Z" stroke="#F6512C" stroke-width="3" stroke-linecap="round" stroke-linejoin="round"/>
</svg>
