<svg width="48" height="48" viewBox="0 0 48 48" fill="none" xmlns="http://www.w3.org/2000/svg">
<rect width="48" height="48" rx="12" transform="matrix(1 0 0 -1 0 48)" fill="#F6512C"/>
<path d="M34.1649 26.9917C33.6599 26.3976 33.8042 26.1306 34.1649 25.5881C34.1649 25.5881 38.2862 20.1542 38.674 18.3114C38.8814 17.6397 38.674 17.1488 37.655 17.1488H34.3183C34.01 17.1226 33.7012 17.1923 33.4379 17.3475C33.1746 17.5027 32.9709 17.7351 32.8573 18.01C31.8052 20.3439 30.4082 22.5218 28.709 24.4772C27.9244 25.2092 27.5637 25.4417 27.1308 25.4417C26.9234 25.4417 26.5987 25.2092 26.5987 24.5805V18.3114C26.5987 17.5019 26.3553 17.1488 25.6428 17.1488H20.3402C20.2305 17.1356 20.1191 17.1443 20.013 17.1741C19.9069 17.204 19.8085 17.2545 19.7238 17.3224C19.6391 17.3903 19.5701 17.4742 19.5209 17.5688C19.4718 17.6634 19.4437 17.7667 19.4384 17.8722C19.4384 18.63 20.6558 18.8108 20.7821 20.9551V25.6139C20.7821 26.6387 20.5837 26.8195 20.1508 26.8195C19.0055 26.8195 16.2279 22.8841 14.5776 18.3716C14.2439 17.5105 13.9193 17.1488 13.0535 17.1488H9.72585C8.76092 17.1488 8.57153 17.5708 8.57153 18.01C8.57153 18.8711 9.71683 23.0046 13.9012 28.5074C16.6878 32.2534 20.6197 34.2857 24.1909 34.2857C26.3372 34.2857 26.5987 33.8379 26.5987 33.0628C26.5987 29.4719 26.4004 29.136 27.5006 29.136C27.9966 29.136 28.8533 29.3685 30.8553 31.1855C33.1459 33.3298 33.5607 34.2857 34.8052 34.2857H38.178C39.1429 34.2857 39.6299 33.8379 39.3504 32.9423C38.692 31.108 34.3543 27.2501 34.1649 26.9917Z" fill="white"/>
</svg>
