<svg width="945" height="369" viewBox="0 0 945 369" fill="none" xmlns="http://www.w3.org/2000/svg">
<path d="M333 0H945V369L0 368L333 0Z" fill="#FC9332"/>
<path d="M0 368L114 324.5L181 297L357.5 231.5L651.25 115.75L724 87L945 0L224.5 120L0 368Z" fill="#FCA453" fill-opacity="0.81"/>
<path d="M118 237.542L357 232L180.5 298L118 237.542Z" fill="#FDB831" fill-opacity="0.47"/>
<path d="M180 297.5L357 232L234.153 369L180 297.5Z" fill="#F79337"/>
<path d="M0 368.5L123.083 368.797L235 369L114 325L0 368.5Z" fill="#F86536"/>
<path d="M548 232.758L724 87L675 369L548 232.758Z" fill="#F7A84C" fill-opacity="0.65"/>
<path d="M118 237L333.837 232.464H548L332.75 0L118 237Z" fill="#FBC97E" fill-opacity="0.3"/>
<path d="M181 297L235 369L114 324.692L181 297Z" fill="#FF813A"/>
<path d="M59.767 302L114 324.504L0 368L59.767 302Z" fill="#FB6C1C"/>
</svg>
