<svg id="Слой_1" data-name="Слой 1" xmlns="http://www.w3.org/2000/svg" viewBox="0 0 612.78 190.28"><defs><style>.cls-1{fill:#e30613;}.cls-2{fill:#1d1d1b;}</style></defs><path class="cls-1" d="M401.36,89.09a36.11,36.11,0,0,1-3.95,1,33.05,33.05,0,0,1-6.09.46,14.72,14.72,0,0,1-5.54-1,11.87,11.87,0,0,1-4.27-2.85,13,13,0,0,1-2.78-4.56,17.47,17.47,0,0,1-1-6,19.38,19.38,0,0,1,.84-5.79A13.26,13.26,0,0,1,381,65.78a10.89,10.89,0,0,1,3.92-3,12.48,12.48,0,0,1,5.32-1.09,13,13,0,0,1,4.73.79A12.25,12.25,0,0,1,397.89,64V49.1l3.47-.63Zm-3.47-21.76a10.35,10.35,0,0,0-1.2-.8,12.6,12.6,0,0,0-3.77-1.41,10.58,10.58,0,0,0-2.35-.25,9.33,9.33,0,0,0-4.3.91,7.82,7.82,0,0,0-2.81,2.44,10.24,10.24,0,0,0-1.55,3.57,19.79,19.79,0,0,0-.48,4.35c0,3.64.92,6.43,2.74,8.38a9.42,9.42,0,0,0,7.2,2.9,28.73,28.73,0,0,0,4.14-.23,19.81,19.81,0,0,0,2.38-.5Z"/><path class="cls-1" d="M414.84,54a2.58,2.58,0,0,1-.75,2,2.65,2.65,0,0,1-3.63,0,2.91,2.91,0,0,1,0-3.9,2.65,2.65,0,0,1,3.63,0A2.58,2.58,0,0,1,414.84,54Zm-.8,36h-3.47V62.31H414Z"/><path class="cls-1" d="M441.23,86.74a7.64,7.64,0,0,1-1,.61,14.35,14.35,0,0,1-1.58.72,13,13,0,0,1-2.14.62,15.2,15.2,0,0,1-7.35-.52,10.3,10.3,0,0,1-3.92-2.35,11.78,11.78,0,0,1-2.71-4.14,16.54,16.54,0,0,1-1-6.17,16,16,0,0,1,.91-5.46,12.94,12.94,0,0,1,2.59-4.35,11.71,11.71,0,0,1,4.12-2.89,13.65,13.65,0,0,1,5.47-1,30.69,30.69,0,0,1,6.17.5c1.56.33,2.82.67,3.82,1V88.49q0,6.2-3.2,8.86T431.78,100a26.46,26.46,0,0,1-4.84-.4,25.63,25.63,0,0,1-3.71-.93l.69-3.16a15,15,0,0,0,3.5,1,24.09,24.09,0,0,0,4.47.43c3.27,0,5.66-.63,7.13-1.9s2.21-3.43,2.21-6.49Zm-.05-21.06a19.44,19.44,0,0,0-2.35-.51,25.51,25.51,0,0,0-4.12-.24,9.6,9.6,0,0,0-4,.77,8.52,8.52,0,0,0-3,2.18,9.88,9.88,0,0,0-1.87,3.37,13.72,13.72,0,0,0-.65,4.31,13.14,13.14,0,0,0,.75,4.69,9.19,9.19,0,0,0,2,3.17,7.25,7.25,0,0,0,2.75,1.78,9,9,0,0,0,3.15.57,12.9,12.9,0,0,0,4.31-.7,9.25,9.25,0,0,0,3-1.6Z"/><path class="cls-1" d="M458.13,54a2.58,2.58,0,0,1-.75,2,2.65,2.65,0,0,1-3.63,0,2.91,2.91,0,0,1,0-3.9,2.65,2.65,0,0,1,3.63,0A2.58,2.58,0,0,1,458.13,54Zm-.8,36h-3.47V62.31h3.47Z"/><path class="cls-1" d="M469.78,62.31h11v2.94h-11V80a14.89,14.89,0,0,0,.4,3.82A5.28,5.28,0,0,0,471.33,86a3.47,3.47,0,0,0,1.82,1.07,9,9,0,0,0,2.35.27,10.31,10.31,0,0,0,3.52-.5,14,14,0,0,0,2.09-.94l.85,2.89a12.65,12.65,0,0,1-2.62,1.09,12.94,12.94,0,0,1-4.06.61,11.89,11.89,0,0,1-4.3-.66,6.22,6.22,0,0,1-2.79-2,8.41,8.41,0,0,1-1.46-3.39,23.21,23.21,0,0,1-.42-4.8V54.19l3.47-.65Z"/><path class="cls-1" d="M495.6,61.66a12.22,12.22,0,0,1,4.62.79,7.8,7.8,0,0,1,3.07,2.13,8.18,8.18,0,0,1,1.7,3.24,14.12,14.12,0,0,1,.54,4.05V89.3c-.35.1-.87.22-1.55.34s-1.46.27-2.34.4-1.88.27-3,.35-2.2.13-3.35.13a15.44,15.44,0,0,1-4-.48,8.88,8.88,0,0,1-3.22-1.52,7.32,7.32,0,0,1-2.14-2.67,9.34,9.34,0,0,1-.76-4A8.05,8.05,0,0,1,486,78a7,7,0,0,1,2.4-2.65,10.32,10.32,0,0,1,3.69-1.52,20.11,20.11,0,0,1,4.65-.49,12.3,12.3,0,0,1,1.57.09c.56.05,1.1.11,1.62.2l1.33.26a6.33,6.33,0,0,1,.77.25V72.46a17.37,17.37,0,0,0-.22-2.81,6,6,0,0,0-.93-2.45,5.3,5.3,0,0,0-2-1.77,7.66,7.66,0,0,0-3.45-.66,17.86,17.86,0,0,0-4.54.43c-1,.28-1.74.52-2.2.68l-.49-3a13,13,0,0,1,2.82-.8A23.73,23.73,0,0,1,495.6,61.66Zm.32,25.76c1.35,0,2.53,0,3.55-.13a25.5,25.5,0,0,0,2.59-.34V77.23a10,10,0,0,0-1.87-.57,16.23,16.23,0,0,0-3.52-.3,23.07,23.07,0,0,0-2.69.18,7.94,7.94,0,0,0-2.55.82A5.37,5.37,0,0,0,489.5,79a4.88,4.88,0,0,0-.75,2.83,6.15,6.15,0,0,0,.51,2.62,4.26,4.26,0,0,0,1.44,1.72,6.75,6.75,0,0,0,2.25.94A13.32,13.32,0,0,0,495.92,87.42Z"/><path class="cls-1" d="M521.39,90.42a11.43,11.43,0,0,1-3.07-.45,5.54,5.54,0,0,1-2.18-1.23,5.08,5.08,0,0,1-1.34-2.14,10,10,0,0,1-.46-3.28V49.1l3.48-.63V83.2a6.86,6.86,0,0,0,.24,2.07,2.86,2.86,0,0,0,.71,1.22,2.75,2.75,0,0,0,1.27.66,15.64,15.64,0,0,0,1.84.39Z"/><path class="cls-2" d="M387.8,112.91a12.39,12.39,0,0,1,4.62.78,7.92,7.92,0,0,1,3.07,2.14,8.11,8.11,0,0,1,1.7,3.24,14.12,14.12,0,0,1,.54,4.05v17.43c-.35.1-.87.22-1.55.34s-1.45.26-2.34.4-1.88.26-3,.35-2.2.13-3.35.13a15.44,15.44,0,0,1-4-.48,8.88,8.88,0,0,1-3.22-1.52,7.41,7.41,0,0,1-2.14-2.67,9.37,9.37,0,0,1-.76-4,8.09,8.09,0,0,1,.85-3.84,7.09,7.09,0,0,1,2.4-2.65,10.7,10.7,0,0,1,3.69-1.52,20.69,20.69,0,0,1,4.65-.48,14.36,14.36,0,0,1,1.57.08c.57,0,1.1.12,1.62.2l1.33.27a4.92,4.92,0,0,1,.77.25V123.7a17.34,17.34,0,0,0-.22-2.8,6,6,0,0,0-.93-2.45,5.22,5.22,0,0,0-2-1.77,7.65,7.65,0,0,0-3.45-.67,17.31,17.31,0,0,0-4.54.44c-1,.28-1.74.51-2.2.68l-.49-3a13.58,13.58,0,0,1,2.82-.8A23.81,23.81,0,0,1,387.8,112.91Zm.32,25.76c1.35,0,2.53,0,3.55-.14a25.8,25.8,0,0,0,2.59-.33v-9.73a11,11,0,0,0-1.87-.56,16.23,16.23,0,0,0-3.52-.3,21.07,21.07,0,0,0-2.69.18,7.7,7.7,0,0,0-2.55.82,5.37,5.37,0,0,0-1.93,1.67,4.84,4.84,0,0,0-.75,2.83,6.15,6.15,0,0,0,.51,2.62,4.26,4.26,0,0,0,1.44,1.72,6.74,6.74,0,0,0,2.25.93A13.29,13.29,0,0,0,388.12,138.67Z"/><path class="cls-2" d="M422.43,116.5H410.09v24.69h-3.47V113.56h15.81Z"/><path class="cls-2" d="M426.15,127.34a17.07,17.07,0,0,1,1.06-6.32,13.88,13.88,0,0,1,2.71-4.52,10.64,10.64,0,0,1,3.86-2.71,11.77,11.77,0,0,1,4.45-.88,10.42,10.42,0,0,1,8.11,3.32c2,2.2,3,5.6,3,10.21,0,.28,0,.57,0,.85s-.05.55-.09.8h-19.4c.12,3.39,1,6,2.52,7.81s4.05,2.72,7.47,2.72a14.55,14.55,0,0,0,4.49-.54,17.6,17.6,0,0,0,2.42-.9l.63,3a14.56,14.56,0,0,1-2.8,1,18.18,18.18,0,0,1-4.84.58,16,16,0,0,1-6.2-1.07,11.22,11.22,0,0,1-4.22-3,12,12,0,0,1-2.4-4.57A21,21,0,0,1,426.15,127.34Zm19.62-2.19a11,11,0,0,0-2-6.74,6.61,6.61,0,0,0-5.46-2.4,7.25,7.25,0,0,0-3.33.75,8.37,8.37,0,0,0-2.57,2,9.14,9.14,0,0,0-1.7,2.91,11.3,11.3,0,0,0-.72,3.47Z"/><path class="cls-2" d="M479.07,141.19H475.6V128.31h-15v12.88h-3.47V113.56h3.47v11.81h15V113.56h3.47Z"/><path class="cls-2" d="M506.06,113.56v2.94H497v24.69H493.5V116.5h-9v-2.94Z"/><path class="cls-2" d="M522.89,141.77a14.42,14.42,0,0,1-5.65-1,10.67,10.67,0,0,1-4.11-2.9,13.41,13.41,0,0,1-2.48-4.55,20.49,20.49,0,0,1,0-11.78,13.26,13.26,0,0,1,2.54-4.59,11.07,11.07,0,0,1,4-3,12.74,12.74,0,0,1,5.29-1,22.17,22.17,0,0,1,4.18.38,10.87,10.87,0,0,1,3,.95l-.9,3a10.94,10.94,0,0,0-2.4-.87,16.88,16.88,0,0,0-3.59-.32,8.42,8.42,0,0,0-7,3c-1.58,2-2.38,4.79-2.38,8.43A18.15,18.15,0,0,0,514,132a9.3,9.3,0,0,0,1.73,3.54,8.3,8.3,0,0,0,3.11,2.3,11.54,11.54,0,0,0,4.62.82,12.34,12.34,0,0,0,3.77-.5,15.31,15.31,0,0,0,2.22-.89l.75,3a12,12,0,0,1-3,1.05A18.3,18.3,0,0,1,522.89,141.77Z"/><path class="cls-2" d="M554.64,113.56v2.94h-9.08v24.69h-3.48V116.5h-9v-2.94Z"/><path class="cls-2" d="M569,113c1.07,0,2.27.07,3.6.2a13,13,0,0,1,3.77.9,7.32,7.32,0,0,1,3,2.24,6.45,6.45,0,0,1,1.21,4.13,5.92,5.92,0,0,1-1.18,3.61,6.82,6.82,0,0,1-3.2,2.32,7.69,7.69,0,0,1,4.32,2.56,6.94,6.94,0,0,1,1.33,4.34,7.94,7.94,0,0,1-1.12,4.47,7.19,7.19,0,0,1-3,2.57,12.85,12.85,0,0,1-4.17,1.15,38.5,38.5,0,0,1-4.72.27,30,30,0,0,1-5-.37,37.41,37.41,0,0,1-3.71-.8V114.14a27.58,27.58,0,0,1,3.52-.8A32.79,32.79,0,0,1,569,113Zm-5.46,12.14h6.31A11.07,11.07,0,0,0,575,124a3.72,3.72,0,0,0,2-3.56,4,4,0,0,0-.7-2.5,4.18,4.18,0,0,0-1.81-1.35,8.91,8.91,0,0,0-2.56-.58,28.23,28.23,0,0,0-2.89-.14,26,26,0,0,0-3.37.19,11.88,11.88,0,0,0-2.14.35Zm0,2.89V138.2a3.83,3.83,0,0,0,.89.18l1.38.15c.52.07,1.07.1,1.65.14s1.16.06,1.69.06a29.41,29.41,0,0,0,3.47-.21,8.84,8.84,0,0,0,2.89-.84,5.14,5.14,0,0,0,2-1.67,4.63,4.63,0,0,0,.75-2.76,4.87,4.87,0,0,0-.62-2.52,4.38,4.38,0,0,0-1.71-1.62,8.75,8.75,0,0,0-2.56-.85,16.83,16.83,0,0,0-3.18-.27Z"/><path class="cls-2" d="M612.78,127.39a17.46,17.46,0,0,1-.94,5.94,12.69,12.69,0,0,1-2.62,4.54,12.56,12.56,0,0,1-14.13,2.92,12.21,12.21,0,0,1-4-2.92,13.31,13.31,0,0,1-2.62-4.54,19.17,19.17,0,0,1,0-11.86,13.55,13.55,0,0,1,2.62-4.57,11.59,11.59,0,0,1,4-2.94,12.81,12.81,0,0,1,10.16,0,11.46,11.46,0,0,1,4,2.94,12.91,12.91,0,0,1,2.62,4.57A17.38,17.38,0,0,1,612.78,127.39Zm-3.69,0a13.09,13.09,0,0,0-2.4-8.26,8.47,8.47,0,0,0-13.05,0,13.09,13.09,0,0,0-2.4,8.26c0,3.47.8,6.21,2.4,8.24a8.52,8.52,0,0,0,13.05,0C608.29,133.6,609.09,130.86,609.09,127.39Z"/><polygon class="cls-2" points="10.7 10.71 10.7 179.58 58.02 179.58 58.02 190.28 0 190.28 0 0 58.02 0 58.02 10.71 10.7 10.71"/><polygon class="cls-2" points="335.48 0 335.48 190.28 277.46 190.28 277.46 179.58 324.78 179.58 324.78 10.71 277.46 10.71 277.46 0 335.48 0"/><path class="cls-2" d="M90.38,146.05a16.24,16.24,0,0,1,5.44.81,9,9,0,0,1,3.52,2.26,8.52,8.52,0,0,1,1.88,3.53,17.12,17.12,0,0,1,.57,4.55v17.06c-1,.21-2.52.48-4.56.78a45.49,45.49,0,0,1-6.85.46,20.27,20.27,0,0,1-4.64-.49,9.55,9.55,0,0,1-3.57-1.56,7.32,7.32,0,0,1-2.32-2.8A9.75,9.75,0,0,1,79,166.4a8.09,8.09,0,0,1,1-4.09,7.55,7.55,0,0,1,2.55-2.72,10.87,10.87,0,0,1,3.74-1.5,20.67,20.67,0,0,1,4.43-.46,18.17,18.17,0,0,1,2.27.14,21.35,21.35,0,0,1,2.52.45v-1.07a7.87,7.87,0,0,0-.27-2.15,4.4,4.4,0,0,0-.93-1.81A4.5,4.5,0,0,0,92.5,152a7.64,7.64,0,0,0-2.77-.43,24.09,24.09,0,0,0-4.14.32,16.9,16.9,0,0,0-3.07.76l-.82-5.28a25,25,0,0,1,3.62-.86A27.88,27.88,0,0,1,90.38,146.05Zm.53,24.29a23.52,23.52,0,0,0,4.57-.33v-7.22a14.33,14.33,0,0,0-1.55-.32,15.53,15.53,0,0,0-2.27-.16,16.08,16.08,0,0,0-2.17.16,7.08,7.08,0,0,0-2,.59,3.58,3.58,0,0,0-1.42,1.22,3.38,3.38,0,0,0-.55,2,3.43,3.43,0,0,0,1.47,3.2A7.48,7.48,0,0,0,90.91,170.34Z"/><path class="cls-2" d="M108.19,160.86a17.12,17.12,0,0,1,1-5.84,13.91,13.91,0,0,1,2.77-4.71,12.64,12.64,0,0,1,4.39-3.12,14.36,14.36,0,0,1,5.8-1.14,19.67,19.67,0,0,1,7.54,1.46l-1.4,5.33a14.43,14.43,0,0,0-2.55-.81,14.1,14.1,0,0,0-3-.32,7.17,7.17,0,0,0-5.82,2.39,10.34,10.34,0,0,0-2,6.76,10.72,10.72,0,0,0,1.88,6.65q1.88,2.44,6.36,2.44a17,17,0,0,0,3.27-.32,15,15,0,0,0,2.8-.8l.92,5.38a13.67,13.67,0,0,1-3.26,1,22.89,22.89,0,0,1-4.5.44,16.36,16.36,0,0,1-6.26-1.1,12.09,12.09,0,0,1-4.42-3.07,13,13,0,0,1-2.62-4.69A19.82,19.82,0,0,1,108.19,160.86Z"/><path class="cls-2" d="M134.83,139.33l6.51-1.07v8.49h10v5.44h-10v11.46c0,2.26.37,3.88,1.09,4.85a4.23,4.23,0,0,0,3.65,1.45,12.05,12.05,0,0,0,3.15-.37,22.39,22.39,0,0,0,2.19-.7l1.06,5.17a26.36,26.36,0,0,1-2.95,1,16.1,16.1,0,0,1-4.3.51,13.83,13.83,0,0,1-5-.8,7.3,7.3,0,0,1-3.2-2.35,9.22,9.22,0,0,1-1.67-3.71,23.27,23.27,0,0,1-.49-5Z"/><path class="cls-2" d="M164.93,138.52a3.74,3.74,0,0,1-1.18,2.9,4,4,0,0,1-2.81,1.08,4.07,4.07,0,0,1-2.85-1.08,3.74,3.74,0,0,1-1.18-2.9,3.83,3.83,0,0,1,1.18-3,4.11,4.11,0,0,1,2.85-1.07,4,4,0,0,1,2.81,1.07A3.83,3.83,0,0,1,164.93,138.52Zm-.7,36.39h-6.51V146.75h6.51Z"/><path class="cls-2" d="M179.76,174.91q-2.7-5.55-5.54-12.73t-5.15-15.43H176c.4,1.59.85,3.28,1.38,5.09s1.07,3.63,1.67,5.44,1.2,3.57,1.83,5.27,1.22,3.24,1.77,4.61c.54-1.37,1.12-2.91,1.72-4.61s1.22-3.46,1.82-5.27,1.15-3.63,1.7-5.44,1-3.5,1.4-5.09H196a156.64,156.64,0,0,1-5.15,15.43c-1.88,4.79-3.74,9-5.54,12.73Z"/><path class="cls-2" d="M200.81,147.67a44.21,44.21,0,0,1,4.91-1,42.41,42.41,0,0,1,6.67-.49,15.28,15.28,0,0,1,5.76,1,9,9,0,0,1,3.68,2.63,9.94,9.94,0,0,1,1.94,4.1,22.58,22.58,0,0,1,.56,5.24v15.83h-6.5v-14.8a21,21,0,0,0-.3-3.85,6.91,6.91,0,0,0-1-2.59,3.88,3.88,0,0,0-1.83-1.45,7.78,7.78,0,0,0-2.82-.46,21.49,21.49,0,0,0-2.59.17c-.9.1-1.55.19-2,.26v22.72h-6.53Z"/><path class="cls-2" d="M257.75,160.8a18.09,18.09,0,0,1-1,6.09,13.23,13.23,0,0,1-2.73,4.68,12.47,12.47,0,0,1-4.29,3,13.78,13.78,0,0,1-5.51,1.08,13.52,13.52,0,0,1-5.49-1.08,12.41,12.41,0,0,1-4.25-3,13.61,13.61,0,0,1-2.77-4.68,17.6,17.6,0,0,1-1-6.09,17.33,17.33,0,0,1,1-6.05,13.44,13.44,0,0,1,2.79-4.66,12.37,12.37,0,0,1,4.28-3,13.64,13.64,0,0,1,5.44-1.06,13.81,13.81,0,0,1,5.46,1.06,12.13,12.13,0,0,1,4.29,3,13.85,13.85,0,0,1,2.76,4.66A17.34,17.34,0,0,1,257.75,160.8Zm-6.67,0a11,11,0,0,0-1.81-6.65,6.4,6.4,0,0,0-10.06,0,11,11,0,0,0-1.8,6.65,11.22,11.22,0,0,0,1.8,6.73,6.34,6.34,0,0,0,10.06,0A11.15,11.15,0,0,0,251.08,160.8Z"/><path class="cls-1" d="M105,18q20.45,0,31.26,7.48T147.1,48.37q0,19.18-18.93,26Q130.75,77.52,134,82t6.66,9.74c2.28,3.49,4.44,7.08,6.54,10.76s3.95,7.28,5.57,10.82h-19.2q-2.58-4.91-5.57-9.87c-2-3.32-4-6.53-6.06-9.67s-4.07-6.08-6.07-8.85-3.86-5.25-5.57-7.42c-1.28.09-2.36.14-3.28.14H96.17v35.67H79v-93a91.7,91.7,0,0,1,13.34-1.84C97.09,18.17,101.3,18,105,18Zm1.23,14.83c-3.63,0-7,.14-10.08.42v30.5h7.49a79.72,79.72,0,0,0,11-.68,23.46,23.46,0,0,0,8-2.45,12,12,0,0,0,4.83-4.77,15.81,15.81,0,0,0,1.62-7.63,15.16,15.16,0,0,0-1.62-7.35,12.33,12.33,0,0,0-4.71-4.77,22.47,22.47,0,0,0-7.28-2.52A54.18,54.18,0,0,0,106.25,32.84Z"/><path class="cls-1" d="M161.4,78.05a44.51,44.51,0,0,1,2.78-16.47A34.73,34.73,0,0,1,171.6,49.8a30.58,30.58,0,0,1,10.64-7.08,32.76,32.76,0,0,1,12.25-2.38q14.7,0,22.93,9.12t8.24,27.24c0,.9,0,1.92-.06,3s-.12,2.16-.21,3.07h-47c.46,5.71,2.47,10.15,6.06,13.28s8.78,4.7,15.59,4.7a50.92,50.92,0,0,0,11-1.1,44.92,44.92,0,0,0,7.83-2.31L221,110.87a26.52,26.52,0,0,1-3.76,1.43,52.16,52.16,0,0,1-5.45,1.36c-2,.41-4.23.75-6.59,1a63.43,63.43,0,0,1-7.23.41,43.56,43.56,0,0,1-16.32-2.79,30.22,30.22,0,0,1-11.44-7.76,31.87,31.87,0,0,1-6.68-11.71A47.94,47.94,0,0,1,161.4,78.05Zm47.79-7.35a21.92,21.92,0,0,0-.95-6.47,15.37,15.37,0,0,0-2.81-5.3A13.16,13.16,0,0,0,201,55.38a14.48,14.48,0,0,0-6.35-1.29A14.71,14.71,0,0,0,188,55.51a15.27,15.27,0,0,0-4.83,3.75,16.73,16.73,0,0,0-3.07,5.32,28.21,28.21,0,0,0-1.5,6.12Z"/><rect class="cls-1" x="240.25" y="97.59" width="17.5" height="17.5"/><rect class="cls-1" x="240.25" y="40.89" width="17.5" height="17.5"/></svg>