<svg width="55" height="59" viewBox="0 0 55 59" fill="none" xmlns="http://www.w3.org/2000/svg">
<path d="M19.5472 52.6632C9.07656 51.1883 3 43.818 3 36.631V34.5939C3 32.9731 3.64537 31.4186 4.79414 30.2725C5.9429 29.1264 7.50097 28.4826 9.12557 28.4826H33.7218M23.4186 2C26.397 2 29.2534 3.18044 31.3595 5.28162C33.4656 7.38281 34.6488 10.2326 34.6488 13.2042C34.6488 16.1757 33.4656 19.0255 31.3595 21.1267C29.2534 23.2279 26.397 24.4083 23.4186 24.4083C20.4401 24.4083 17.5837 23.2279 15.4776 21.1267C13.3715 19.0255 12.1884 16.1757 12.1884 13.2042C12.1884 10.2326 13.3715 7.38281 15.4776 5.28162C17.5837 3.18044 20.4401 2 23.4186 2ZM39.1665 26.294L40.3222 23.2383C41.3758 20.4679 43.5472 19.5803 46.3159 20.7578L47.9004 21.4341C49.832 22.2571 51.4328 23.7483 51.7677 25.7528C53.6339 36.8551 43.976 52.6469 32.8601 56.6763C30.8509 57.4015 28.3221 56.6199 26.6028 55.4547C26.0227 55.0649 25.5343 54.5541 25.1713 53.9577C24.8082 53.3612 24.5792 52.6933 24.5 52C24.4208 51.3067 24.4933 50.6045 24.7125 49.9418C24.9318 49.2792 25.2925 48.6719 25.7698 48.1618L28 45.5C28.5217 44.9242 29.1886 44.4984 29.9312 44.267C30.6739 44.0356 31.4651 44.0069 32.2226 44.184L38 46C41.9653 43.5269 44.2141 39.4817 44.5 35L40.069 30.4009C39.5321 29.8796 39.1604 29.2126 39 28.4826C38.8396 27.7525 38.8975 26.9915 39.1665 26.294Z" stroke="#F6512C" stroke-width="3" stroke-linecap="round" stroke-linejoin="round"/>
</svg>
