<svg width="30" height="31" viewBox="0 0 30 31" fill="none" xmlns="http://www.w3.org/2000/svg">
<g clip-path="url(#clip0_44_813)">
<path d="M28.9436 17.8662C29.8386 10.3324 28.5136 5.57616 26.1236 3.42491L26.1249 3.42366C22.2674 -0.250091 9.23985 -0.793842 4.62486 3.58866C2.55236 5.73241 1.82236 8.87866 1.74236 12.7737C1.66236 16.6699 1.56736 23.9687 8.36861 25.9487H8.37485L8.36861 28.9724C8.36861 28.9724 8.32235 30.1974 9.10485 30.4437C9.99986 30.7337 10.4049 30.1649 13.1886 26.8399C17.8436 27.2437 21.4186 26.3187 21.8249 26.1837C22.7649 25.8687 28.0836 25.1649 28.9436 17.8662ZM13.6474 24.7124C13.6474 24.7124 10.7011 28.3862 9.78485 29.3399C9.48485 29.6499 9.1561 29.6212 9.1611 29.0062C9.1611 28.6024 9.18361 23.9862 9.18361 23.9862C3.41736 22.3337 3.75735 16.1187 3.81986 12.8674C3.88236 9.61491 4.47736 6.95116 6.23236 5.15741C10.2811 1.36116 21.7024 2.20991 24.6124 4.94491C28.1699 8.09866 26.9036 17.0087 26.9111 17.3124C26.1799 23.4049 21.8699 23.7912 21.0774 24.0549C20.7386 24.1674 17.5949 24.9762 13.6474 24.7124Z" fill="#A042FF"/>
<path d="M15.2774 5.87109C14.7962 5.87109 14.7962 6.62109 15.2774 6.62734C19.0112 6.65609 22.0862 9.25859 22.1199 14.0323C22.1199 14.5361 22.8574 14.5298 22.8512 14.0261H22.8499C22.8099 8.88234 19.4524 5.89984 15.2774 5.87109Z" fill="#A042FF"/>
<path d="M20.1887 13.2413C20.1774 13.7388 20.9137 13.7625 20.9199 13.2588C20.9812 10.4225 19.2324 8.0863 15.9462 7.84005C15.4649 7.80505 15.4149 8.5613 15.8949 8.5963C18.7449 8.81255 20.2462 10.7575 20.1887 13.2413Z" fill="#A042FF"/>
<path d="M19.4013 16.4676C18.7838 16.1101 18.155 16.3326 17.895 16.6839L17.3513 17.3876C17.075 17.7451 16.5588 17.6976 16.5588 17.6976C12.7913 16.7014 11.7838 12.7589 11.7838 12.7589C11.7838 12.7589 11.7375 12.2251 12.0825 11.9389L12.7625 11.3764C13.1025 11.1064 13.3175 10.4564 12.9713 9.81763C12.0463 8.14638 11.425 7.57013 11.1088 7.12763C10.7763 6.71138 10.2763 6.61763 9.75627 6.89888H9.74502C8.66377 7.53138 7.48002 8.71513 7.85877 9.93388C8.50502 11.2189 9.69252 15.3151 13.4775 18.4101C15.2563 19.8739 18.0713 21.3739 19.2663 21.7201L19.2775 21.7376C20.455 22.1301 21.6 20.9001 22.2113 19.7864V19.7776C22.4825 19.2389 22.3925 18.7289 21.9963 18.3951C21.2938 17.7101 20.2338 16.9539 19.4013 16.4676Z" fill="#A042FF"/>
<path d="M16.4612 10.6301C17.6624 10.7001 18.2449 11.3276 18.3074 12.6163C18.3299 13.1201 19.0612 13.0851 19.0387 12.5813C18.9587 10.8988 18.0812 9.96135 16.5012 9.87385C16.0199 9.8451 15.9749 10.6013 16.4612 10.6301Z" fill="#A042FF"/>
</g>
<defs>
<clipPath id="clip0_44_813">
<rect width="30" height="30" fill="white" transform="translate(0 0.5)"/>
</clipPath>
</defs>
</svg>
