<svg width="55" height="55" viewBox="0 0 55 55" fill="none" xmlns="http://www.w3.org/2000/svg">
<path d="M29.6528 52H43.9667C46.4951 52 48.9199 50.9859 50.7078 49.1809C52.4956 47.3759 53.5 44.9277 53.5 42.375V12.625C53.5 10.0723 52.4956 7.62413 50.7078 5.8191C48.9199 4.01406 46.4951 3 43.9667 3H14.5C11.9716 3 9.54676 4.01406 7.75892 5.8191C5.97107 7.62413 4.96667 10.0723 4.96667 12.625V24.896M43.1 38H25.6731M43.1 17H25.6731M25.6731 27.5H43.1M16.2949 45.9372C17.9202 44.2962 18.8333 42.0706 18.8333 39.75C18.8333 37.4294 17.9202 35.2038 16.2949 33.5628C14.6696 31.9219 12.4652 31 10.1667 31C7.86812 31 5.66372 31.9219 4.03841 33.5628C2.41309 35.2038 1.5 37.4294 1.5 39.75C1.5 42.0706 2.41309 44.2962 4.03841 45.9372C5.66372 47.5781 7.86812 48.5 10.1667 48.5C12.4652 48.5 14.6696 47.5781 16.2949 45.9372ZM16.2949 45.9372L22.2997 52M16.2333 19.625C16.9229 19.625 17.5842 19.3484 18.0718 18.8562C18.5594 18.3639 18.8333 17.6962 18.8333 17C18.8333 16.3038 18.5594 15.6361 18.0718 15.1438C17.5842 14.6516 16.9229 14.375 16.2333 14.375C15.5438 14.375 14.8824 14.6516 14.3949 15.1438C13.9073 15.6361 13.6333 16.3038 13.6333 17C13.6333 17.6962 13.9073 18.3639 14.3949 18.8562C14.8824 19.3484 15.5438 19.625 16.2333 19.625Z" stroke="#F6512C" stroke-width="3" stroke-linecap="round" stroke-linejoin="round"/>
</svg>
