<svg width="55" height="55" viewBox="0 0 55 55" fill="none" xmlns="http://www.w3.org/2000/svg">
<path d="M26.3604 41H12.9358C6.62704 41 1.5 35.62 1.5 29C1.49967 26.0434 2.5406 23.1909 4.42277 20.9906C6.30494 18.7904 8.89558 17.3977 11.6969 17.08C14.0794 12.28 18.8633 9 24.3716 9C27.6786 8.99922 30.8833 10.2033 33.4383 12.4065C35.9934 14.6097 37.7402 17.6754 38.3804 21.08C42.0466 21.3463 45.139 23.7583 46.5 27.1333" stroke="#F6512C" stroke-width="3" stroke-linecap="round" stroke-linejoin="round"/>
<path d="M46.5 33V42.0435H53.5M53.5 42.0435V33M53.5 42.0435V46" stroke="#F6512C" stroke-width="3" stroke-linecap="round" stroke-linejoin="round"/>
<path d="M41.5 46H33.5L41.5 38.087V33H33.5V36.3913" stroke="#F6512C" stroke-width="3" stroke-linecap="round" stroke-linejoin="round"/>
</svg>
