<svg width="613" height="191" viewBox="0 0 613 191" fill="none" xmlns="http://www.w3.org/2000/svg">
<g clip-path="url(#clip0_1580_5)">
<path d="M401.36 89.09C400.063 89.4974 398.744 89.8313 397.41 90.09C395.399 90.431 393.36 90.585 391.32 90.55C389.426 90.5762 387.545 90.2366 385.78 89.55C384.166 88.9229 382.708 87.9501 381.51 86.7C380.278 85.3888 379.331 83.836 378.73 82.14C378.048 80.2139 377.71 78.1831 377.73 76.14C377.715 74.1786 377.999 72.2264 378.57 70.35C379.072 68.6818 379.898 67.1289 381 65.78C382.06 64.4931 383.401 63.4668 384.92 62.78C386.592 62.0306 388.408 61.6584 390.24 61.69C391.852 61.6577 393.456 61.9256 394.97 62.48C396.007 62.853 396.989 63.3643 397.89 64V49.1L401.36 48.47V89.09ZM397.89 67.33C397.509 67.0358 397.108 66.7684 396.69 66.53C395.517 65.861 394.244 65.3849 392.92 65.12C392.148 64.9492 391.36 64.8653 390.57 64.87C389.085 64.8266 387.61 65.1386 386.27 65.78C385.151 66.3554 384.187 67.1924 383.46 68.22C382.72 69.3 382.194 70.5119 381.91 71.79C381.59 73.2178 381.429 74.6767 381.43 76.14C381.43 79.78 382.35 82.57 384.17 84.52C385.095 85.4871 386.216 86.246 387.457 86.7461C388.699 87.2461 390.033 87.4759 391.37 87.42C392.754 87.4431 394.137 87.3663 395.51 87.19C396.313 87.0722 397.108 86.9053 397.89 86.69V67.33Z" fill="#E30613"/>
<path d="M414.84 54C414.865 54.3676 414.811 54.7363 414.682 55.0813C414.552 55.4262 414.351 55.7395 414.09 56C413.599 56.4619 412.949 56.7191 412.275 56.7191C411.6 56.7191 410.951 56.4619 410.46 56C409.977 55.4652 409.71 54.7704 409.71 54.05C409.71 53.3296 409.977 52.6348 410.46 52.1C410.951 51.6381 411.6 51.3809 412.275 51.3809C412.949 51.3809 413.599 51.6381 414.09 52.1C414.338 52.349 414.532 52.6459 414.661 52.9726C414.79 53.2993 414.851 53.6489 414.84 54ZM414.04 90H410.57V62.31H414L414.04 90Z" fill="#E30613"/>
<path d="M441.23 86.74C440.913 86.9686 440.578 87.1726 440.23 87.35C439.718 87.6217 439.191 87.8621 438.65 88.07C437.956 88.3375 437.24 88.545 436.51 88.69C434.054 89.1221 431.53 88.9435 429.16 88.17C427.694 87.6901 426.354 86.887 425.24 85.82C424.054 84.6474 423.13 83.2363 422.53 81.68C421.808 79.7056 421.468 77.6115 421.53 75.51C421.514 73.651 421.822 71.8033 422.44 70.05C423.008 68.4436 423.889 66.9653 425.03 65.7C426.178 64.4495 427.583 63.4634 429.15 62.81C430.885 62.1049 432.747 61.7645 434.62 61.81C436.688 61.7683 438.755 61.9358 440.79 62.31C442.35 62.64 443.61 62.98 444.61 63.31V88.49C444.61 92.6233 443.543 95.5767 441.41 97.35C439.277 99.1233 436.067 100.007 431.78 100C430.158 100.015 428.538 99.8814 426.94 99.6C425.682 99.3828 424.442 99.072 423.23 98.67L423.92 95.51C425.042 95.9842 426.217 96.32 427.42 96.51C428.893 96.7922 430.39 96.9362 431.89 96.94C435.16 96.94 437.55 96.31 439.02 95.04C440.49 93.77 441.23 91.61 441.23 88.55V86.74ZM441.18 65.68C440.408 65.4617 439.623 65.2913 438.83 65.17C437.465 64.9789 436.088 64.8986 434.71 64.93C433.337 64.8976 431.973 65.1602 430.71 65.7C429.562 66.1976 428.538 66.9419 427.71 67.88C426.871 68.8697 426.236 70.0148 425.84 71.25C425.395 72.6429 425.176 74.0979 425.19 75.56C425.153 77.1559 425.407 78.7452 425.94 80.25C426.382 81.4328 427.063 82.5119 427.94 83.42C428.709 84.2154 429.65 84.8242 430.69 85.2C431.697 85.5767 432.764 85.7698 433.84 85.77C435.306 85.7833 436.764 85.5466 438.15 85.07C439.24 84.7266 440.257 84.1841 441.15 83.47L441.18 65.68Z" fill="#E30613"/>
<path d="M458.13 54C458.155 54.3676 458.101 54.7363 457.972 55.0813C457.842 55.4262 457.641 55.7395 457.38 56C456.889 56.4619 456.239 56.7191 455.565 56.7191C454.891 56.7191 454.241 56.4619 453.75 56C453.267 55.4652 453 54.7704 453 54.05C453 53.3296 453.267 52.6348 453.75 52.1C454.241 51.6381 454.891 51.3809 455.565 51.3809C456.239 51.3809 456.889 51.6381 457.38 52.1C457.628 52.349 457.822 52.6459 457.951 52.9726C458.08 53.2993 458.141 53.6489 458.13 54ZM457.33 90H453.86V62.31H457.33V90Z" fill="#E30613"/>
<path d="M469.78 62.31H480.78V65.25H469.78V80C469.748 81.2853 469.882 82.5693 470.18 83.82C470.386 84.6272 470.78 85.3742 471.33 86C471.811 86.537 472.447 86.911 473.15 87.07C473.918 87.263 474.708 87.3538 475.5 87.34C476.693 87.3784 477.884 87.2092 479.02 86.84C479.741 86.5843 480.44 86.2699 481.11 85.9L481.96 88.79C481.13 89.2505 480.251 89.6161 479.34 89.88C478.028 90.2981 476.657 90.504 475.28 90.49C473.818 90.5363 472.361 90.3126 470.98 89.83C469.881 89.4382 468.914 88.7452 468.19 87.83C467.458 86.8221 466.96 85.6642 466.73 84.44C466.424 82.8589 466.283 81.2502 466.31 79.64V54.19L469.78 53.54V62.31Z" fill="#E30613"/>
<path d="M495.6 61.66C497.177 61.6228 498.745 61.891 500.22 62.45C501.401 62.9008 502.454 63.6318 503.29 64.58C504.094 65.5178 504.675 66.6255 504.99 67.82C505.365 69.1367 505.547 70.501 505.53 71.87V89.3C505.18 89.4 504.66 89.52 503.98 89.64C503.3 89.76 502.52 89.91 501.64 90.04C500.76 90.17 499.76 90.31 498.64 90.39C497.52 90.47 496.44 90.52 495.29 90.52C493.941 90.5354 492.597 90.374 491.29 90.04C490.125 89.7559 489.03 89.2389 488.07 88.52C487.156 87.8116 486.422 86.8966 485.93 85.85C485.386 84.5888 485.126 83.223 485.17 81.85C485.124 80.5177 485.409 79.1948 486 78C486.557 76.9238 487.384 76.0107 488.4 75.35C489.519 74.6081 490.773 74.0918 492.09 73.83C493.616 73.4864 495.176 73.322 496.74 73.34C497.265 73.3365 497.789 73.3665 498.31 73.43C498.87 73.48 499.41 73.54 499.93 73.63L501.26 73.89C501.522 73.9568 501.779 74.0403 502.03 74.14V72.46C502.033 71.5189 501.959 70.5792 501.81 69.65C501.684 68.7748 501.367 67.9382 500.88 67.2C500.375 66.4489 499.687 65.8396 498.88 65.43C497.797 64.9457 496.616 64.7198 495.43 64.77C493.905 64.7187 492.379 64.8633 490.89 65.2C489.89 65.48 489.15 65.72 488.69 65.88L488.2 62.88C489.107 62.5079 490.053 62.2395 491.02 62.08C492.529 61.792 494.063 61.6514 495.6 61.66ZM495.92 87.42C497.27 87.42 498.45 87.42 499.47 87.29C500.339 87.221 501.203 87.1075 502.06 86.95V77.23C501.457 76.9794 500.83 76.7885 500.19 76.66C499.031 76.4322 497.851 76.3316 496.67 76.36C495.771 76.3675 494.872 76.4276 493.98 76.54C493.09 76.667 492.227 76.9442 491.43 77.36C490.665 77.745 490.003 78.3073 489.5 79C488.966 79.8443 488.704 80.8321 488.75 81.83C488.726 82.7301 488.9 83.6245 489.26 84.45C489.578 85.1417 490.075 85.7356 490.7 86.17C491.387 86.6173 492.149 86.9359 492.95 87.11C493.925 87.3243 494.922 87.4283 495.92 87.42Z" fill="#E30613"/>
<path d="M521.39 90.42C520.351 90.4102 519.318 90.2588 518.32 89.97C517.509 89.7317 516.763 89.3109 516.14 88.74C515.52 88.1508 515.059 87.4147 514.8 86.6C514.465 85.5398 514.31 84.4313 514.34 83.32V49.1L517.82 48.47V83.2C517.794 83.8982 517.875 84.5962 518.06 85.27C518.191 85.7296 518.435 86.149 518.77 86.49C519.128 86.8182 519.566 87.046 520.04 87.15C520.645 87.3168 521.259 87.447 521.88 87.54L521.39 90.42Z" fill="#E30613"/>
<path d="M387.8 112.91C389.376 112.874 390.944 113.139 392.42 113.69C393.6 114.148 394.652 114.882 395.49 115.83C396.296 116.766 396.878 117.875 397.19 119.07C397.565 120.387 397.747 121.751 397.73 123.12V140.55C397.38 140.65 396.86 140.77 396.18 140.89C395.5 141.01 394.73 141.15 393.84 141.29C392.95 141.43 391.96 141.55 390.84 141.64C389.72 141.73 388.64 141.77 387.49 141.77C386.141 141.785 384.797 141.624 383.49 141.29C382.325 141.006 381.23 140.489 380.27 139.77C379.358 139.059 378.625 138.145 378.13 137.1C377.587 135.839 377.327 134.473 377.37 133.1C377.333 131.77 377.625 130.451 378.22 129.26C378.78 128.186 379.607 127.274 380.62 126.61C381.744 125.876 382.996 125.361 384.31 125.09C385.837 124.755 387.397 124.594 388.96 124.61C389.484 124.608 390.009 124.635 390.53 124.69C391.1 124.69 391.63 124.81 392.15 124.89L393.48 125.16C393.743 125.222 394.001 125.306 394.25 125.41V123.7C394.252 122.762 394.179 121.826 394.03 120.9C393.904 120.025 393.587 119.188 393.1 118.45C392.598 117.697 391.909 117.087 391.1 116.68C390.018 116.192 388.836 115.963 387.65 116.01C386.124 115.956 384.597 116.104 383.11 116.45C382.11 116.73 381.37 116.96 380.91 117.13L380.42 114.13C381.328 113.762 382.274 113.494 383.24 113.33C384.743 113.044 386.27 112.903 387.8 112.91ZM388.12 138.67C389.47 138.67 390.65 138.67 391.67 138.53C392.538 138.464 393.403 138.354 394.26 138.2V128.47C393.655 128.228 393.029 128.041 392.39 127.91C391.231 127.682 390.051 127.582 388.87 127.61C387.97 127.613 387.072 127.673 386.18 127.79C385.289 127.912 384.426 128.19 383.63 128.61C382.862 129.003 382.2 129.576 381.7 130.28C381.164 131.123 380.902 132.112 380.95 133.11C380.926 134.01 381.1 134.905 381.46 135.73C381.778 136.422 382.275 137.016 382.9 137.45C383.587 137.894 384.35 138.209 385.15 138.38C386.126 138.588 387.122 138.685 388.12 138.67Z" fill="#1D1D1B"/>
<path d="M422.43 116.5H410.09V141.19H406.62V113.56H422.43V116.5Z" fill="#1D1D1B"/>
<path d="M426.15 127.34C426.101 125.185 426.461 123.041 427.21 121.02C427.816 119.354 428.736 117.82 429.92 116.5C430.988 115.319 432.307 114.393 433.78 113.79C435.192 113.211 436.704 112.912 438.23 112.91C439.742 112.841 441.25 113.103 442.651 113.676C444.052 114.249 445.31 115.121 446.34 116.23C448.34 118.43 449.34 121.83 449.34 126.44C449.34 126.72 449.34 127.01 449.34 127.29C449.34 127.57 449.29 127.84 449.25 128.09H429.85C429.97 131.48 430.85 134.09 432.37 135.9C433.89 137.71 436.42 138.62 439.84 138.62C441.356 138.675 442.871 138.493 444.33 138.08C445.158 137.84 445.966 137.539 446.75 137.18L447.38 140.18C446.483 140.608 445.545 140.943 444.58 141.18C443 141.59 441.372 141.785 439.74 141.76C437.623 141.817 435.516 141.453 433.54 140.69C431.919 140.033 430.474 139.005 429.32 137.69C428.198 136.359 427.379 134.799 426.92 133.12C426.396 131.239 426.137 129.293 426.15 127.34ZM445.77 125.15C445.859 122.745 445.156 120.377 443.77 118.41C443.112 117.61 442.275 116.976 441.326 116.559C440.378 116.142 439.345 115.954 438.31 116.01C437.156 115.991 436.015 116.249 434.98 116.76C434.001 117.252 433.127 117.932 432.41 118.76C431.668 119.616 431.091 120.603 430.71 121.67C430.289 122.782 430.046 123.953 429.99 125.14L445.77 125.15Z" fill="#1D1D1B"/>
<path d="M479.07 141.19H475.6V128.31H460.6V141.19H457.13V113.56H460.6V125.37H475.6V113.56H479.07V141.19Z" fill="#1D1D1B"/>
<path d="M506.06 113.56V116.5H497V141.19H493.5V116.5H484.5V113.56H506.06Z" fill="#1D1D1B"/>
<path d="M522.89 141.77C520.959 141.819 519.037 141.478 517.24 140.77C515.658 140.145 514.249 139.15 513.13 137.87C512.015 136.529 511.173 134.983 510.65 133.32C509.497 129.478 509.497 125.382 510.65 121.54C511.183 119.856 512.046 118.296 513.19 116.95C514.277 115.658 515.645 114.632 517.19 113.95C518.862 113.244 520.666 112.903 522.48 112.95C523.882 112.944 525.282 113.071 526.66 113.33C527.701 113.499 528.711 113.82 529.66 114.28L528.76 117.28C527.997 116.897 527.191 116.605 526.36 116.41C525.178 116.176 523.975 116.068 522.77 116.09C521.45 116.005 520.128 116.232 518.911 116.753C517.695 117.275 516.619 118.075 515.77 119.09C514.19 121.09 513.39 123.88 513.39 127.52C513.406 129.033 513.611 130.538 514 132C514.317 133.29 514.907 134.497 515.73 135.54C516.571 136.541 517.637 137.329 518.84 137.84C520.308 138.427 521.88 138.706 523.46 138.66C524.735 138.689 526.007 138.52 527.23 138.16C527.992 137.922 528.734 137.624 529.45 137.27L530.2 140.27C529.251 140.751 528.242 141.105 527.2 141.32C525.786 141.64 524.339 141.791 522.89 141.77Z" fill="#1D1D1B"/>
<path d="M554.64 113.56V116.5H545.56V141.19H542.08V116.5H533.08V113.56H554.64Z" fill="#1D1D1B"/>
<path d="M569 113C570.07 113 571.27 113.07 572.6 113.2C573.895 113.31 575.165 113.613 576.37 114.1C577.547 114.574 578.581 115.346 579.37 116.34C580.234 117.538 580.661 118.995 580.58 120.47C580.594 121.77 580.179 123.039 579.4 124.08C578.586 125.152 577.472 125.959 576.2 126.4C577.886 126.746 579.407 127.647 580.52 128.96C581.437 130.217 581.906 131.745 581.85 133.3C581.927 134.868 581.537 136.423 580.73 137.77C579.99 138.89 578.95 139.78 577.73 140.34C576.415 140.956 575.005 141.345 573.56 141.49C571.994 141.677 570.417 141.767 568.84 141.76C567.166 141.776 565.493 141.653 563.84 141.39C562.591 141.186 561.352 140.919 560.13 140.59V114.14C561.285 113.797 562.46 113.53 563.65 113.34C565.421 113.081 567.21 112.967 569 113ZM563.54 125.14H569.85C571.633 125.181 573.4 124.789 575 124C575.644 123.666 576.177 123.151 576.532 122.519C576.887 121.886 577.05 121.164 577 120.44C577.051 119.552 576.805 118.672 576.3 117.94C575.832 117.332 575.206 116.865 574.49 116.59C573.67 116.271 572.807 116.076 571.93 116.01C570.97 115.914 570.005 115.867 569.04 115.87C567.914 115.86 566.788 115.924 565.67 116.06C564.947 116.111 564.231 116.228 563.53 116.41L563.54 125.14ZM563.54 128.03V138.2C563.828 138.295 564.127 138.356 564.43 138.38L565.81 138.53C566.33 138.6 566.88 138.63 567.46 138.67C568.04 138.71 568.62 138.73 569.15 138.73C570.31 138.728 571.468 138.658 572.62 138.52C573.624 138.407 574.602 138.123 575.51 137.68C576.309 137.304 576.998 136.729 577.51 136.01C578.045 135.192 578.308 134.226 578.26 133.25C578.285 132.369 578.071 131.498 577.64 130.73C577.229 130.044 576.637 129.484 575.93 129.11C575.126 128.696 574.262 128.409 573.37 128.26C572.321 128.069 571.256 127.979 570.19 127.99L563.54 128.03Z" fill="#1D1D1B"/>
<path d="M612.78 127.39C612.813 129.409 612.495 131.419 611.84 133.33C611.292 135.009 610.4 136.555 609.22 137.87C607.45 139.75 605.145 141.039 602.616 141.561C600.088 142.084 597.46 141.815 595.09 140.79C593.571 140.1 592.21 139.106 591.09 137.87C589.924 136.545 589.034 135.002 588.47 133.33C587.216 129.476 587.216 125.324 588.47 121.47C589.036 119.79 589.926 118.237 591.09 116.9C592.195 115.643 593.56 114.64 595.09 113.96C596.694 113.267 598.423 112.91 600.17 112.91C601.917 112.91 603.646 113.267 605.25 113.96C606.782 114.636 608.147 115.64 609.25 116.9C610.428 118.227 611.32 119.783 611.87 121.47C612.514 123.376 612.822 125.379 612.78 127.39ZM609.09 127.39C609.243 124.445 608.398 121.534 606.69 119.13C605.895 118.17 604.898 117.397 603.77 116.866C602.643 116.336 601.411 116.06 600.165 116.06C598.919 116.06 597.687 116.336 596.56 116.866C595.432 117.397 594.435 118.17 593.64 119.13C591.932 121.534 591.087 124.445 591.24 127.39C591.24 130.86 592.04 133.6 593.64 135.63C594.44 136.582 595.438 137.348 596.565 137.874C597.693 138.399 598.921 138.671 600.165 138.671C601.409 138.671 602.637 138.399 603.765 137.874C604.892 137.348 605.89 136.582 606.69 135.63C608.29 133.6 609.09 130.86 609.09 127.39Z" fill="#1D1D1B"/>
<path d="M10.7 10.71V179.58H58.02V190.28H0V0H58.02V10.71H10.7Z" fill="#1D1D1B"/>
<path d="M335.48 0V190.28H277.46V179.58H324.78V10.71H277.46V0H335.48Z" fill="#1D1D1B"/>
<path d="M90.3799 146.05C92.2261 146.009 94.0659 146.283 95.8199 146.86C97.1545 147.326 98.3604 148.101 99.3399 149.12C100.238 150.131 100.882 151.341 101.22 152.65C101.613 154.134 101.805 155.665 101.79 157.2V174.26C100.79 174.47 99.27 174.74 97.2299 175.04C94.9615 175.366 92.6716 175.519 90.3799 175.5C88.8196 175.516 87.2626 175.351 85.7399 175.01C84.4554 174.741 83.2401 174.21 82.1699 173.45C81.1734 172.727 80.3755 171.764 79.8499 170.65C79.2513 169.315 78.9608 167.862 78.9999 166.4C78.9664 164.972 79.3115 163.561 79.9999 162.31C80.6092 161.204 81.4859 160.269 82.5499 159.59C83.6922 158.861 84.9607 158.353 86.2899 158.09C87.7457 157.778 89.231 157.623 90.7199 157.63C91.4788 157.629 92.2369 157.676 92.9899 157.77C93.8382 157.869 94.6797 158.02 95.5099 158.22V157.15C95.5195 156.424 95.4286 155.701 95.2399 155C95.0756 154.332 94.7571 153.712 94.3099 153.19C93.8125 152.652 93.1912 152.243 92.4999 152C91.611 151.687 90.6719 151.541 89.7299 151.57C88.3433 151.557 86.9582 151.664 85.5899 151.89C84.5451 152.047 83.5173 152.301 82.5199 152.65L81.6999 147.37C82.8836 146.994 84.0936 146.706 85.3199 146.51C86.9891 146.203 88.6828 146.049 90.3799 146.05ZM90.91 170.34C92.4404 170.379 93.971 170.268 95.4799 170.01V162.79C94.9696 162.655 94.4521 162.548 93.9299 162.47C93.1782 162.361 92.4195 162.308 91.66 162.31C90.9338 162.314 90.2088 162.368 89.4899 162.47C88.7978 162.567 88.1238 162.766 87.4899 163.06C86.9168 163.334 86.4267 163.755 86.0699 164.28C85.6815 164.873 85.4891 165.572 85.5199 166.28C85.4528 166.896 85.5541 167.52 85.8129 168.083C86.0718 168.647 86.4785 169.129 86.9899 169.48C88.1939 170.118 89.5493 170.416 90.91 170.34Z" fill="#1D1D1B"/>
<path d="M108.19 160.86C108.181 158.87 108.52 156.894 109.19 155.02C109.793 153.282 110.734 151.681 111.96 150.31C113.182 148.967 114.679 147.903 116.35 147.19C118.183 146.412 120.159 146.024 122.15 146.05C124.735 146.037 127.297 146.533 129.69 147.51L128.29 152.84C127.467 152.492 126.613 152.22 125.74 152.03C124.754 151.816 123.749 151.709 122.74 151.71C121.652 151.64 120.562 151.818 119.554 152.233C118.545 152.647 117.645 153.285 116.92 154.1C115.482 156.049 114.774 158.442 114.92 160.86C114.795 163.223 115.456 165.562 116.8 167.51C118.053 169.137 120.173 169.95 123.16 169.95C124.258 169.949 125.353 169.842 126.43 169.63C127.387 169.455 128.325 169.187 129.23 168.83L130.15 174.21C129.109 174.678 128.014 175.014 126.89 175.21C125.408 175.505 123.901 175.652 122.39 175.65C120.251 175.696 118.125 175.322 116.13 174.55C114.445 173.872 112.934 172.822 111.71 171.48C110.52 170.116 109.627 168.519 109.09 166.79C108.491 164.87 108.187 162.871 108.19 160.86Z" fill="#1D1D1B"/>
<path d="M134.83 139.33L141.34 138.26V146.75H151.34V152.19H141.34V163.65C141.34 165.91 141.71 167.53 142.43 168.5C142.876 169.019 143.441 169.422 144.077 169.674C144.712 169.927 145.4 170.021 146.08 169.95C147.142 169.966 148.201 169.842 149.23 169.58C149.972 169.384 150.702 169.151 151.42 168.88L152.48 174.05C151.517 174.441 150.532 174.775 149.53 175.05C148.126 175.413 146.68 175.584 145.23 175.56C143.528 175.603 141.833 175.332 140.23 174.76C138.967 174.287 137.859 173.474 137.03 172.41C136.204 171.313 135.633 170.046 135.36 168.7C135.017 167.056 134.852 165.379 134.87 163.7L134.83 139.33Z" fill="#1D1D1B"/>
<path d="M164.93 138.52C164.955 139.06 164.862 139.599 164.658 140.099C164.454 140.6 164.145 141.051 163.75 141.42C162.99 142.132 161.982 142.52 160.94 142.5C159.886 142.523 158.864 142.136 158.09 141.42C157.695 141.051 157.386 140.6 157.182 140.099C156.978 139.599 156.885 139.06 156.91 138.52C156.877 137.964 156.965 137.408 157.169 136.89C157.373 136.372 157.687 135.904 158.09 135.52C158.868 134.812 159.888 134.429 160.94 134.45C161.98 134.428 162.988 134.811 163.75 135.52C164.153 135.904 164.467 136.372 164.671 136.89C164.875 137.408 164.963 137.964 164.93 138.52ZM164.23 174.91H157.72V146.75H164.23V174.91Z" fill="#1D1D1B"/>
<path d="M179.76 174.91C177.96 171.21 176.113 166.967 174.22 162.18C172.327 157.393 170.61 152.25 169.07 146.75H176C176.4 148.34 176.85 150.03 177.38 151.84C177.91 153.65 178.45 155.47 179.05 157.28C179.65 159.09 180.25 160.85 180.88 162.55C181.51 164.25 182.1 165.79 182.65 167.16C183.19 165.79 183.77 164.25 184.37 162.55C184.97 160.85 185.59 159.09 186.19 157.28C186.79 155.47 187.34 153.65 187.89 151.84C188.44 150.03 188.89 148.34 189.29 146.75H196C194.552 151.979 192.833 157.129 190.85 162.18C188.97 166.97 187.11 171.18 185.31 174.91H179.76Z" fill="#1D1D1B"/>
<path d="M200.81 147.67C202.426 147.244 204.066 146.91 205.72 146.67C207.927 146.331 210.157 146.167 212.39 146.18C214.356 146.14 216.312 146.479 218.15 147.18C219.581 147.729 220.847 148.634 221.83 149.81C222.784 151.009 223.448 152.412 223.77 153.91C224.161 155.629 224.349 157.387 224.33 159.15V174.98H217.83V160.18C217.848 158.89 217.748 157.601 217.53 156.33C217.375 155.408 217.035 154.527 216.53 153.74C216.083 153.08 215.444 152.574 214.7 152.29C213.796 151.964 212.84 151.808 211.88 151.83C211.014 151.834 210.149 151.891 209.29 152C208.39 152.1 207.74 152.19 207.29 152.26V174.98H200.76L200.81 147.67Z" fill="#1D1D1B"/>
<path d="M257.75 160.8C257.768 162.872 257.43 164.932 256.75 166.89C256.173 168.622 255.243 170.215 254.02 171.57C252.818 172.862 251.356 173.885 249.73 174.57C247.987 175.304 246.111 175.672 244.22 175.65C242.335 175.677 240.465 175.309 238.73 174.57C237.117 173.882 235.669 172.859 234.48 171.57C233.251 170.212 232.309 168.62 231.71 166.89C231.021 164.935 230.682 162.873 230.71 160.8C230.681 158.74 231.02 156.691 231.71 154.75C232.313 153.023 233.263 151.437 234.5 150.09C235.697 148.797 237.156 147.774 238.78 147.09C240.502 146.368 242.353 146.007 244.22 146.03C246.093 146.009 247.951 146.37 249.68 147.09C251.311 147.766 252.775 148.79 253.97 150.09C255.188 151.447 256.126 153.03 256.73 154.75C257.427 156.69 257.772 158.739 257.75 160.8ZM251.08 160.8C251.205 158.447 250.57 156.116 249.27 154.15C248.671 153.389 247.907 152.773 247.036 152.35C246.165 151.927 245.209 151.707 244.24 151.707C243.271 151.707 242.315 151.927 241.444 152.35C240.573 152.773 239.809 153.389 239.21 154.15C237.913 156.117 237.282 158.448 237.41 160.8C237.281 163.177 237.911 165.534 239.21 167.53C239.802 168.302 240.564 168.927 241.436 169.357C242.308 169.787 243.268 170.011 244.24 170.011C245.213 170.011 246.172 169.787 247.044 169.357C247.916 168.927 248.678 168.302 249.27 167.53C250.577 165.538 251.211 163.179 251.08 160.8Z" fill="#1D1D1B"/>
<path d="M105 18C118.633 18 129.053 20.4933 136.26 25.48C143.467 30.4667 147.08 38.0967 147.1 48.37C147.1 61.1567 140.79 69.8233 128.17 74.37C129.89 76.47 131.833 79.0133 134 82C136.167 84.9867 138.387 88.2333 140.66 91.74C142.94 95.23 145.1 98.82 147.2 102.5C149.3 106.18 151.15 109.78 152.77 113.32H133.57C131.85 110.047 129.993 106.757 128 103.45C126 100.13 124 96.92 121.94 93.78C119.88 90.64 117.87 87.7 115.87 84.93C113.87 82.16 112.01 79.68 110.3 77.51C109.02 77.6 107.94 77.65 107.02 77.65H96.17V113.32H79V20.32C83.3956 19.3806 87.8542 18.7656 92.34 18.48C97.09 18.17 101.3 18 105 18ZM106.23 32.83C102.6 32.83 99.23 32.97 96.15 33.25V63.75H103.64C107.318 63.7774 110.993 63.5502 114.64 63.07C117.432 62.7393 120.142 61.9094 122.64 60.62C124.676 59.528 126.353 57.8717 127.47 55.85C128.639 53.4819 129.196 50.8587 129.09 48.22C129.176 45.6728 128.619 43.1449 127.47 40.87C126.371 38.8755 124.74 37.2245 122.76 36.1C120.497 34.8472 118.034 33.9946 115.48 33.58C112.43 33.0704 109.342 32.8228 106.25 32.84L106.23 32.83Z" fill="#E30613"/>
<path d="M161.4 78.05C161.279 72.4338 162.222 66.8454 164.18 61.58C165.833 57.1928 168.357 53.1856 171.6 49.8C174.608 46.7169 178.234 44.3043 182.24 42.72C186.133 41.1491 190.292 40.3411 194.49 40.34C204.29 40.34 211.933 43.38 217.42 49.46C222.907 55.54 225.653 64.62 225.66 76.7C225.66 77.6 225.66 78.62 225.6 79.7C225.54 80.78 225.48 81.86 225.39 82.77H178.39C178.85 88.48 180.86 92.92 184.45 96.05C188.04 99.18 193.23 100.75 200.04 100.75C203.736 100.784 207.424 100.415 211.04 99.65C213.715 99.1193 216.335 98.3461 218.87 97.34L221 110.87C219.785 111.441 218.528 111.919 217.24 112.3C215.449 112.851 213.63 113.305 211.79 113.66C209.79 114.07 207.56 114.41 205.2 114.66C202.8 114.934 200.386 115.071 197.97 115.07C192.402 115.192 186.862 114.245 181.65 112.28C177.288 110.612 173.373 107.956 170.21 104.52C167.174 101.138 164.896 97.145 163.53 92.81C162.054 88.0312 161.336 83.051 161.4 78.05ZM209.19 70.7C209.199 68.508 208.878 66.327 208.24 64.23C207.661 62.2959 206.706 60.495 205.43 58.93C204.229 57.4385 202.717 56.2269 201 55.38C199.008 54.4758 196.837 54.0348 194.65 54.09C192.353 54.0375 190.075 54.5238 188 55.51C186.154 56.4216 184.511 57.6971 183.17 59.26C181.827 60.8287 180.786 62.6324 180.1 64.58C179.373 66.5576 178.87 68.6104 178.6 70.7H209.19Z" fill="#E30613"/>
<path d="M257.75 97.59H240.25V115.09H257.75V97.59Z" fill="#E30613"/>
<path d="M257.75 40.89H240.25V58.39H257.75V40.89Z" fill="#E30613"/>
</g>
<defs>
<clipPath id="clip0_1580_5">
<rect width="612.78" height="190.28" fill="white"/>
</clipPath>
</defs>
</svg>
