<svg width="36" height="36" viewBox="0 0 36 36" fill="none" xmlns="http://www.w3.org/2000/svg">
<path d="M22.7814 22.3462C26.1906 22.3462 28.9731 21.3068 31.1295 19.2275C33.2859 17.1477 34.364 14.4628 34.364 11.1733C34.364 7.88342 33.2859 5.19853 31.1301 3.11941C28.9731 1.03974 26.1909 0 22.7814 0H8.99987C8.76138 0 8.56525 0.0769284 8.41175 0.229979C8.2587 0.383478 8.18178 0.579337 8.18178 0.818092V16.901H2.45432C2.21557 16.901 2.01971 16.9816 1.86621 17.1435C1.71316 17.3058 1.63623 17.4971 1.63623 17.7188V21.5286C1.63623 21.7676 1.7128 21.9632 1.86621 22.117C2.01971 22.2702 2.21584 22.3468 2.45432 22.3468H8.18169V25.3631H2.45432C2.21557 25.3631 2.01971 25.4403 1.86621 25.5936C1.71316 25.7465 1.63623 25.9426 1.63623 26.1814V29.4545C1.63623 29.6929 1.7128 29.8892 1.86621 30.0423C2.01971 30.1955 2.21584 30.2725 2.45432 30.2725H8.18169V35.1818C8.18169 35.4202 8.25835 35.6164 8.41166 35.7696C8.56525 35.9228 8.76138 35.9997 8.99978 35.9997H13.2699C13.4914 35.9997 13.6832 35.9228 13.8452 35.7696C14.007 35.6163 14.0881 35.4202 14.0881 35.1818V30.2725H27.0006C27.2391 30.2725 27.4353 30.1955 27.5884 30.0423C27.7416 29.8891 27.8182 29.6929 27.8182 29.4545V26.181C27.8182 25.9426 27.7417 25.7464 27.5884 25.5926C27.4352 25.4397 27.2391 25.3631 27.0006 25.3631H14.0882V22.3461H22.7814V22.3462ZM14.0882 5.44562H22.2696C24.0766 5.44562 25.5338 5.97409 26.642 7.03067C27.7499 8.08769 28.3043 9.4682 28.3043 11.173C28.3043 12.8778 27.7505 14.2583 26.6426 15.3148C25.5344 16.3716 24.0765 16.9004 22.2702 16.9004H14.0882V5.44562Z" fill="#F6512C"/>
</svg>
